<svg xmlns="http://www.w3.org/2000/svg" width="56.384" height="56.384" fill="none"><path fill="#231815" d="M48.03 56.38H8.35C3.72 56.38 0 52.66 0 48.03V8.35C0 3.72 3.72 0 8.35 0h39.68c4.63 0 8.35 3.72 8.35 8.35v39.68c0 4.63-3.81 8.35-8.35 8.35Z"/><path fill="#FFF" d="M27.78 18.24s5.54-3.35 8.9-5.26c3.36-1.91 5.26-2.54 7.17-2.72 1.91-.1 4.08.9 4.08.9l-6.08-3.81s-.82-.55-3.09-.27c-2.27.27-3.45.91-4.9 1.63-1.45.82-11.17 6.54-11.17 6.54l5.09 2.99ZM42.31 15.7s2.81 3.91.63 10.81-7.26 10.8-7.63 11.07c-.27.28-3.45 2.09-3.45 2.09l.09 5.45s10.17-3.54 14.44-13.35c3.81-8.62 1.36-13.25-.54-15.25-1.09-1.18-3.54-.82-3.54-.82ZM27.78 45.03l-5.09-3V15.34l5.09 2.9v26.79ZM12.25 37.22l-5.08-3.09V7.53l4.99 2.82.09 26.87Z"/><path fill="#FFF" d="M7.17 34.13s-1.27 11.26 7.9 15.35c5.26 2.36 9.17 1 10.98-.82 1.46-1.45 1.64-3.63 1.64-3.63l-5.09-3.09s0 1.09-.81 1.91c-.91 1-2.36 2-5.63.36-4.18-2.18-4-6.99-4-6.99l-4.99-3.09ZM12.16 10.35l4.09-2.09-4.63-2.54-4.45 1.81 4.99 2.82Z"/></svg>