<svg xmlns="http://www.w3.org/2000/svg" width="63" height="63" fill="none">
  <path fill="#fff" d="M52.9 62.1H9.2C4.1 62.1 0 58 0 52.9V9.2C0 4.1 4.1 0 9.2 0h43.7c5.1 0 9.2 4.1 9.2 9.2v43.7c0 5.1-4.2 9.2-9.2 9.2Z"/>
  <path fill="#231815" d="M30.6 20.1s6.1-3.7 9.8-5.8c3.7-2.1 5.8-2.8 7.9-3 2.1-.1 4.5 1 4.5 1l-6.7-4.2s-.9-.6-3.4-.3-3.8 1-5.4 1.8c-1.6.9-12.3 7.2-12.3 7.2l5.6 3.3ZM46.6 17.3s3.1 4.3.7 11.9c-2.4 7.6-8 11.9-8.4 12.2-.3.3-3.8 2.3-3.8 2.3l.1 6S46.4 45.8 51.1 35c4.2-9.5 1.5-14.6-.6-16.8-1.2-1.3-3.9-.9-3.9-.9Z"/>
  <path fill="#231815" d="M30.6 49.6 25 46.3V16.9l5.6 3.2v29.5ZM13.5 41l-5.6-3.4V8.3l5.5 3.1.1 29.6Z"/>
  <path fill="#231815" d="M7.9 37.6S6.5 50 16.6 54.5c5.8 2.6 10.1 1.1 12.1-.9 1.6-1.6 1.8-4 1.8-4l-5.6-3.4s0 1.2-.9 2.1c-1 1.1-2.6 2.2-6.2.4-4.6-2.4-4.4-7.7-4.4-7.7l-5.5-3.4ZM13.4 11.4l4.5-2.3-5.1-2.8-4.9 2 5.5 3.1Z"/>
</svg>
