<svg xmlns="http://www.w3.org/2000/svg" width="164" height="36" fill="none">
  <path fill="#fff" d="M158.4 21.9h2.2v.5h-.9v2.3h-.5v-2.3h-.9l.1-.5ZM161 21.9h.6l.9 1.8.9-1.8h.6v2.8h-.5v-2l-.9 1.7h-.3l-.9-1.7v2h-.4v-2.8ZM155.4 22.1v2.8h-12.2c-3 0-3 0-3 2.9 0 4.3 0 4.3 4.2 4.3 2.2 0 4.4-.1 6.5 0 1.6.1 2.1-.5 1.9-2-.1-.9 0-1.9 0-3h3.1c0 1.7.1 3.3 0 5-.1 1.7-1.2 2.7-2.8 2.8-4.4.1-8.7.1-13.1 0-2 0-3-1.3-3-3.3v-6.1c0-2.2 1-3.3 3.1-3.4 5.1-.1 10.1 0 15.3 0ZM.4.9h3.1v9.6c0 .2.2.4.4.4H16c.2 0 .4-.2.4-.4V.9h3.2c0 3.5.1 6.9 0 10.3 0 1.6-1.1 2.6-2.6 2.6-4.8.1-9.1.1-14 0C1.4 13.8.4 12.7.4 11 .3 7.7.4 4.3.4.9ZM70.2 22.1h3.1v9.4c0 .2.2.4.4.4h14v2.9H73.8c-2.8 0-3.7-1.1-3.7-3.6.1-2.7.1-6.1.1-9.1ZM110.5 22.2h2.9v12.7h-2.9V22.2ZM63.5 7.1s.5-.8.5-1.2c.6-2.4-.3-4.9-2.7-5C55.9.7 50.5.8 44.9.8v12.9H60c3.9 0 4.5-2.9 3.9-5.6 0-.3-.4-1-.4-1Zm-3.3 3.7-11.9.1V8.5h11.9c.2 0 .4.2.4.4v1.5c0 .2-.2.4-.4.4Zm0-4.7-11.9.1V3.8h11.9c.2 0 .4.2.4.4v1.5c0 .2-.2.4-.4.4ZM80.9 3.3c-1-2-2.5-2.4-4.5-2.4-2.1 0-3.5.4-4.5 2.4 0 0-3.8 6.8-6 10.5h3.9L75.2 4c.1-.1.2-.2.4-.2h1.8c.1 0 .3.1.4.2l5.4 9.8h3.9c-2.4-3.7-6.3-10.5-6.2-10.5ZM107.5.9h-3.3v10s-.5.1-1.2-.5c-1.7-1.6-5.5-6.2-6-6.7 0 0 0-.1-.1-.1-.3-.4-.6-.7-.7-.8C95 1.6 94.3 1 92.1.8h-2.9v12.9h3.3v-10s.5-.1 1.2.5c1.7 1.6 5.5 6.2 6 6.7 0 0 0 .1.1.1.3.4.6.7.7.8 1.2 1.2 1.9 1.8 4.1 2h2.9V.9ZM19.5 24.6c0-1.5-1.1-2.4-2.8-2.4H.1v12.7h16.6c1.6 0 2.7-1 2.8-2.4v-7.9Zm-3.1 1.7v5.4c0 .2-.2.4-.4.4H3.6c-.2 0-.4-.2-.4-.4v-6.2c0-.2.2-.4.4-.4h12.6c.2 0 .2.2.2.4v.8ZM134.4 22.1h-3.3v10s-.5.1-1.2-.5c-1.7-1.6-5.5-6.2-6-6.7l-.1-.1c-.3-.4-.6-.7-.7-.8-1.2-1.2-1.9-1.8-4.1-2h-2.9v12.9h3.3v-10s.5-.1 1.2.5c1.7 1.6 5.5 6.2 6 6.7l.1.1c.3.4.6.7.7.8 1.2 1.2 1.9 1.8 4.1 2h2.9V22.1ZM44 22.1c-.5 2.7-1.3 6.2-1.9 8.9-.1.6-.3 1-.8 1-.6 0-.6-.4-.9-1 0 0-2-5.3-3-7.6-.4-.9-1-1.3-1.9-1.3H33.1c-.9 0-1.5.4-1.9 1.3-1 2.3-3 7.6-3 7.6-.2.6-.3 1-.9 1-.5 0-.7-.4-.8-1-.6-2.8-1.3-6.2-1.9-8.9h-3.4c.8 3.5 1.6 6.8 2.3 10 .3 1.4.7 2.8 2.5 2.7h2.7c1 0 1.5-.7 2-2.1l2.9-7.7c.3-.8.4-.9.6-.9.2 0 .4.1.6.9l2.9 7.7c.5 1.4 1 2.1 2 2.1h2.7c1.8 0 2.2-1.3 2.5-2.7.7-3.2 1.5-6.6 2.3-10H44ZM66.4 27.4H52.1c-.3 0-.5-.2-.5-.4v-1.5c0-.2.2-.4.5-.4h15v-2.9c-5.5 0-10.9-.1-16.4.1-2.3.1-2.9 2.2-2.9 4.8v2.5c0 2.7.2 5.5 4.1 5.5H67v-2.9H52c-.3 0-.5-.2-.5-.4v-1.7c0-.2.2-.4.5-.4h15v-2.3h-.6ZM90 22.1h3.1v9.4c0 .2.2.4.4.4h14v2.9H93.6c-2.8 0-3.7-1.1-3.7-3.6.1-2.7.1-6.1.1-9.1ZM36.6 8.8h1.5c2.7-.1 3-1.5 3-3.9 0-2.2-.6-3.8-3.1-3.9H21.9v12.9h3v-5h7.3l5.4 5h4.2c0-.1-5.2-5.1-5.2-5.1ZM25 6.1V3.7h12c.2 0 .4.2.4.4v1.5c0 .2-.2.4-.4.4l-12 .1Z"/>
</svg>
