<svg xmlns="http://www.w3.org/2000/svg" width="148.813" height="31.166" fill="none">
  <path fill="#231815" d="M143.72 19.18h2v.45h-.82v2.09h-.45v-2.09h-.82l.09-.45ZM146.08 19.18h.55l.82 1.63.81-1.63h.55v2.54h-.46V19.9l-.81 1.55h-.27l-.82-1.55v1.82h-.37v-2.54ZM141 19.36v2.54h-11.08c-2.72 0-2.72 0-2.72 2.63 0 3.91 0 3.91 3.81 3.91 2 0 4-.09 5.9 0 1.46.09 1.91-.46 1.73-1.82-.09-.82 0-1.72 0-2.72h2.81c0 1.54.09 2.99 0 4.54-.09 1.54-1.09 2.45-2.54 2.54-3.99.09-7.9.09-11.89 0-1.82 0-2.73-1.18-2.73-3v-5.54c0-1.99.91-2.99 2.82-3.08 4.63-.09 9.17 0 13.89 0ZM.27.11h2.81v8.71c0 .19.18.37.37.37h10.98c.18 0 .37-.18.37-.37V.11h2.9c0 3.18.09 6.26 0 9.35 0 1.45-1 2.36-2.36 2.36-4.36.09-8.26.09-12.71 0-1.45 0-2.36-1-2.36-2.54-.09-3 0-6.08 0-9.17ZM63.64 19.36h2.82v8.53c0 .18.18.37.36.37h12.71v2.63H66.91c-2.54 0-3.36-1-3.36-3.27.09-2.45.09-5.54.09-8.26ZM100.23 19.45h2.64v11.53h-2.64V19.45ZM57.56 5.74s.45-.73.45-1.09c.55-2.18-.27-4.45-2.45-4.54-4.9-.18-9.8-.09-14.89-.09v11.71h13.71c3.54 0 4.09-2.63 3.54-5.08 0-.28-.36-.91-.36-.91Zm-3 3.36-10.8.09V7.01h10.8c.18 0 .37.18.37.36v1.36c0 .19-.19.37-.37.37Zm0-4.27-10.8.09V2.74h10.8c.18 0 .37.18.37.36v1.37c0 .18-.19.36-.37.36ZM73.36 2.29C72.45.47 71.09.11 69.27.11c-1.9 0-3.18.36-4.08 2.18 0 0-3.45 6.17-5.45 9.53h3.54l4.9-8.9c.09-.09.18-.18.37-.18h1.63c.09 0 .27.09.36.18l4.91 8.9h3.54c-2.18-3.36-5.72-9.53-5.63-9.53ZM97.51.11h-3v9.08s-.45.09-1.09-.46c-1.54-1.45-4.99-5.63-5.44-6.08 0 0 0-.09-.1-.09-.27-.36-.54-.64-.63-.73C86.16.74 85.52.2 83.53.02h-2.64v11.71h3V2.65s.45-.09 1.09.45c1.54 1.46 4.99 5.63 5.45 6.09 0 0 0 .09.09.09.27.36.54.63.63.73 1.09 1.08 1.73 1.63 3.73 1.81h2.63V.11ZM17.61 21.63c0-1.36-1-2.18-2.54-2.18H0v11.53h15.07c1.45 0 2.45-.91 2.54-2.18v-7.17Zm-2.82 1.54v4.9c0 .19-.18.37-.36.37H3.17c-.18 0-.36-.18-.36-.37v-5.63c0-.18.18-.36.36-.36h11.44c.18 0 .18.18.18.36v.73ZM121.93 19.36h-2.99v9.08s-.46.09-1.09-.46c-1.55-1.45-5-5.63-5.45-6.08l-.09-.09c-.27-.36-.55-.64-.64-.73-1.09-1.09-1.72-1.63-3.72-1.81h-2.63v11.71h2.99V21.9s.46-.09 1.09.45c1.55 1.46 5 5.63 5.45 6.09l.09.09c.27.36.55.63.64.72 1.09 1.09 1.72 1.64 3.72 1.82h2.63V19.36ZM39.85 19.36c-.45 2.45-1.18 5.63-1.72 8.08-.09.54-.27.91-.73.91-.54 0-.54-.37-.81-.91 0 0-1.82-4.81-2.73-6.9-.36-.82-.91-1.18-1.72-1.18h-2.18c-.82 0-1.36.36-1.73 1.18-.91 2.09-2.72 6.9-2.72 6.9-.18.54-.27.91-.82.91-.45 0-.63-.37-.72-.91-.55-2.54-1.19-5.63-1.73-8.08h-3.09c.73 3.17 1.46 6.17 2.09 9.08.27 1.27.64 2.54 2.27 2.45h2.45c.91 0 1.36-.64 1.82-1.91l2.63-6.99c.27-.73.36-.82.55-.82.18 0 .36.09.54.82l2.63 6.99c.46 1.27.91 1.91 1.82 1.91h2.45c1.64 0 2-1.18 2.27-2.45.64-2.91 1.36-6 2.09-9.08h-2.91ZM60.19 24.17H47.21c-.27 0-.46-.18-.46-.36v-1.37c0-.18.19-.36.46-.36H60.83v-2.63c-5 0-9.9-.09-14.89.09-2.09.09-2.64 2-2.64 4.36v2.27c0 2.45.19 4.99 3.73 4.99h13.71v-2.63H47.12c-.27 0-.46-.18-.46-.37v-1.54c0-.18.19-.36.46-.36h13.62v-2.09h-.55ZM81.62 19.36h2.81v8.53c0 .18.19.37.37.37h12.71v2.63H84.89c-2.54 0-3.36-1-3.36-3.27.09-2.45.09-5.54.09-8.26ZM33.14 7.28h1.36c2.45-.09 2.72-1.36 2.72-3.54 0-2-.54-3.45-2.81-3.54H19.79v11.71h2.72V7.37h6.63l4.9 4.54h3.82c0-.09-4.72-4.63-4.72-4.63ZM22.6 4.83V2.65h10.9c.18 0 .36.18.36.36v1.37c0 .18-.18.36-.36.36l-10.9.09Z"/>
</svg>
